<svg width="40" height="40" viewBox="0 0 40 40" fill="none" xmlns="http://www.w3.org/2000/svg">
<path d="M21.0167 3.81165C20.7347 3.56659 20.3737 3.43164 20.0001 3.43164C19.6265 3.43164 19.2654 3.56659 18.9834 3.81165C17.7166 4.90863 16.6933 6.2586 15.9794 7.77474C15.2656 9.29087 14.8769 10.9396 14.8384 12.615C14.8374 12.7705 14.8801 12.9231 14.9617 13.0555C15.0434 13.1878 15.1606 13.2945 15.3001 13.3633C16.3143 13.8907 17.2654 14.5314 18.1351 15.2733C18.5651 15.6383 18.9551 16.02 19.3084 16.4083C19.6751 16.8116 20.3251 16.8116 20.6917 16.4083C21.0451 16.02 21.4351 15.6383 21.8651 15.275C22.734 14.5329 23.6846 13.8921 24.6984 13.365C24.8381 13.2964 24.9557 13.1898 25.0377 13.0574C25.1196 12.9251 25.1626 12.7723 25.1617 12.6166C25.1236 10.941 24.7351 9.29189 24.0212 7.77543C23.3073 6.25897 22.2839 4.90875 21.0167 3.81165Z" fill="#D1B4FB"/>
<path d="M19.9998 30.0718C21.3378 27.7163 23.3485 25.8139 25.7745 24.6083C28.2004 23.4028 30.931 22.949 33.6165 23.3051C34.0137 23.3576 34.3757 23.5604 34.628 23.8716C34.8804 24.1828 35.0039 24.5789 34.9731 24.9784C34.7284 28.1583 33.2924 31.1286 30.9524 33.2956C28.6124 35.4626 25.5407 36.6665 22.3515 36.6668H17.6481C14.4589 36.6665 11.3872 35.4626 9.04719 33.2956C6.70718 31.1286 5.27126 28.1583 5.02648 24.9784C4.99615 24.579 5.1198 24.1831 5.37206 23.872C5.62433 23.5608 5.98609 23.358 6.38314 23.3051C9.06862 22.9488 11.7993 23.4024 14.2253 24.608C16.6513 25.8136 18.662 27.7161 19.9998 30.0718ZM32.7431 21.5501C29.6631 21.3801 26.6531 22.1834 24.1998 23.4918C22.7281 24.2751 21.3831 25.2834 20.3298 26.4434C20.288 26.4893 20.237 26.526 20.1802 26.551C20.1233 26.5761 20.0619 26.5891 19.9998 26.5891C19.9377 26.5891 19.8763 26.5761 19.8195 26.551C19.7626 26.526 19.7117 26.4893 19.6698 26.4434C18.6181 25.2818 17.2698 24.2751 15.7998 23.4918C13.3531 22.1868 10.3498 21.3851 7.28148 21.5501C6.06481 19.6334 5.23148 17.4334 5.03148 15.2168C5.01273 15.0072 5.03559 14.796 5.09874 14.5953C5.16189 14.3946 5.26408 14.2083 5.39945 14.0473C5.53482 13.8862 5.70069 13.7534 5.88752 13.6567C6.07436 13.5599 6.27848 13.501 6.48814 13.4834C10.5781 13.1418 13.9931 13.9501 17.0581 16.5451C18.4398 17.7168 19.3681 19.1234 19.9998 20.3234C20.6331 19.1234 21.5598 17.7168 22.9415 16.5451C26.0081 13.9484 29.4465 13.1418 33.5365 13.4834C33.7461 13.501 33.9503 13.5599 34.1371 13.6567C34.3239 13.7534 34.4898 13.8862 34.6252 14.0473C34.7605 14.2083 34.8627 14.3946 34.9259 14.5953C34.989 14.796 35.0119 15.0072 34.9931 15.2168C34.7931 17.4334 33.9598 19.6351 32.7431 21.5501Z" fill="#D1B4FB"/>
</svg>
