<svg width="19" height="20" viewBox="0 0 19 20" fill="none" xmlns="http://www.w3.org/2000/svg">
<path fill-rule="evenodd" clip-rule="evenodd" d="M0.849609 10.1514C0.849609 6.55623 0.849609 4.75866 1.7063 3.46392C2.08886 2.88576 2.584 2.39061 3.16216 2.00806C4.4569 1.15137 6.25447 1.15137 9.84961 1.15137C13.4447 1.15137 15.2423 1.15137 16.5371 2.00806C17.1152 2.39061 17.6104 2.88576 17.9929 3.46392C18.8496 4.75866 18.8496 6.55623 18.8496 10.1514C18.8496 13.7465 18.8496 15.5441 17.9929 16.8388C17.6104 17.417 17.1152 17.9121 16.5371 18.2947C15.2423 19.1514 13.4447 19.1514 9.84961 19.1514C6.25447 19.1514 4.4569 19.1514 3.16216 18.2947C2.584 17.9121 2.08886 17.417 1.7063 16.8388C0.849609 15.5441 0.849609 13.7465 0.849609 10.1514ZM14.5089 10.1516C14.5089 12.7249 12.4228 14.811 9.84945 14.811C7.27613 14.811 5.19004 12.7249 5.19004 10.1516C5.19004 7.57827 7.27613 5.49219 9.84945 5.49219C12.4228 5.49219 14.5089 7.57827 14.5089 10.1516ZM9.84945 13.2346C11.5521 13.2346 12.9325 11.8543 12.9325 10.1516C12.9325 8.4489 11.5521 7.06859 9.84945 7.06859C8.14675 7.06859 6.76645 8.4489 6.76645 10.1516C6.76645 11.8543 8.14675 13.2346 9.84945 13.2346ZM14.6929 6.35292C15.2975 6.35292 15.7877 5.86275 15.7877 5.25809C15.7877 4.65344 15.2975 4.16327 14.6929 4.16327C14.0882 4.16327 13.5981 4.65344 13.5981 5.25809C13.5981 5.86275 14.0882 6.35292 14.6929 6.35292Z" fill="#4A3AFF"/>
</svg>
