<svg width="19" height="19" viewBox="0 0 19 19" fill="none" xmlns="http://www.w3.org/2000/svg">
<path d="M0.849609 3.07127C0.849609 2.49405 1.05232 2.01786 1.45772 1.6427C1.86312 1.26751 2.39016 1.07993 3.0388 1.07993C3.67587 1.07993 4.1913 1.26462 4.58513 1.63404C4.99053 2.01499 5.19324 2.51137 5.19324 3.12321C5.19324 3.67733 4.99633 4.13908 4.6025 4.5085C4.19711 4.88945 3.66428 5.07992 3.00405 5.07992H2.98668C2.3496 5.07992 1.83417 4.88945 1.44034 4.5085C1.04651 4.12754 0.849609 3.64846 0.849609 3.07127ZM1.07548 18.2228V6.65568H4.93262V18.2228H1.07548ZM7.06969 18.2228H10.9268V11.7639C10.9268 11.3599 10.9732 11.0482 11.0658 10.8288C11.228 10.4363 11.4741 10.1044 11.8042 9.83317C12.1344 9.56188 12.5484 9.42624 13.0465 9.42624C14.3438 9.42624 14.9925 10.2978 14.9925 12.041V18.2228H18.8496V11.5907C18.8496 9.88223 18.4442 8.58642 17.6334 7.7033C16.8226 6.82018 15.7512 6.37862 14.4191 6.37862C12.9249 6.37862 11.7608 7.01932 10.9268 8.3007V8.33533H10.9095L10.9268 8.3007V6.65568H7.06969C7.09285 7.02508 7.10444 8.17371 7.10444 10.1016C7.10444 12.0294 7.09285 14.7365 7.06969 18.2228Z" fill="#4A3AFF"/>
</svg>
