<svg width="63" height="63" viewBox="0 0 63 63" fill="none" xmlns="http://www.w3.org/2000/svg">
<g clip-path="url(#clip0_102_597)">
<path d="M62.2239 31.7477C62.2239 39.9661 58.9592 47.8479 53.1479 53.6592C47.3367 59.4704 39.4549 62.7352 31.2365 62.7352C23.0181 62.7352 15.1363 59.4704 9.32504 53.6592C3.51376 47.8479 0.249023 39.9661 0.249023 31.7477C0.249023 23.5293 3.51376 15.6475 9.32504 9.83627C15.1363 4.025 23.0181 0.760254 31.2365 0.760254C39.4549 0.760254 47.3367 4.025 53.1479 9.83627C58.9592 15.6475 62.2239 23.5293 62.2239 31.7477Z" fill="#699BF7"/>
<path d="M26.5498 20.4877C26.2602 20.2815 25.9194 20.159 25.5648 20.1336C25.2102 20.1082 24.8555 20.1809 24.5395 20.3437C24.2235 20.5065 23.9583 20.7532 23.7732 21.0566C23.588 21.3601 23.49 21.7087 23.4897 22.0642V41.4314C23.49 41.7868 23.588 42.1354 23.7732 42.4389C23.9583 42.7424 24.2235 42.989 24.5395 43.1518C24.8555 43.3146 25.2102 43.3873 25.5648 43.3619C25.9194 43.3365 26.2602 43.214 26.5498 43.0078L40.1068 33.3243C40.3578 33.1451 40.5625 32.9086 40.7037 32.6344C40.8449 32.3602 40.9185 32.0562 40.9185 31.7478C40.9185 31.4393 40.8449 31.1354 40.7037 30.8612C40.5625 30.587 40.3578 30.3504 40.1068 30.1713L26.5498 20.4877Z" fill="white"/>
</g>
<defs>
<clipPath id="clip0_102_597">
<rect width="61.9749" height="61.9749" fill="white" transform="translate(0.249023 0.760254)"/>
</clipPath>
</defs>
</svg>
