<svg width="105" height="131" viewBox="0 0 105 131" fill="none" xmlns="http://www.w3.org/2000/svg">
<rect width="2.83784" height="3.57114" fill="#1D0404" fill-opacity="0.26"/>
<rect x="11.3516" width="2.83784" height="3.57114" fill="#1D0404" fill-opacity="0.26"/>
<rect x="22.7026" width="2.83784" height="3.57114" fill="#1D0404" fill-opacity="0.26"/>
<rect x="34.0542" width="2.83784" height="3.57114" fill="#1D0404" fill-opacity="0.26"/>
<rect x="45.4053" width="2.83784" height="3.57114" fill="#1D0404" fill-opacity="0.26"/>
<rect x="56.7568" width="2.83784" height="3.57114" fill="#1D0404" fill-opacity="0.26"/>
<rect x="68.1084" width="2.83784" height="3.57114" fill="#1D0404" fill-opacity="0.26"/>
<rect x="79.4595" width="2.83784" height="3.57114" fill="#1D0404" fill-opacity="0.26"/>
<rect x="90.811" width="2.83784" height="3.57114" fill="#1D0404" fill-opacity="0.26"/>
<rect x="102.162" width="2.83784" height="3.57114" fill="#1D0404" fill-opacity="0.26"/>
<rect y="14.2847" width="2.83784" height="3.57114" fill="#1D0404" fill-opacity="0.26"/>
<rect x="11.3516" y="14.2847" width="2.83784" height="3.57114" fill="#1D0404" fill-opacity="0.26"/>
<rect x="22.7031" y="14.2847" width="2.83784" height="3.57114" fill="#1D0404" fill-opacity="0.26"/>
<rect x="34.0537" y="14.2847" width="2.83784" height="3.57114" fill="#1D0404" fill-opacity="0.26"/>
<rect x="45.4053" y="14.2847" width="2.83784" height="3.57114" fill="#1D0404" fill-opacity="0.26"/>
<rect x="56.7568" y="14.2847" width="2.83784" height="3.57114" fill="#1D0404" fill-opacity="0.26"/>
<rect x="68.1084" y="14.2847" width="2.83784" height="3.57114" fill="#1D0404" fill-opacity="0.26"/>
<rect x="79.46" y="14.2847" width="2.83784" height="3.57114" fill="#1D0404" fill-opacity="0.26"/>
<rect x="90.8105" y="14.2847" width="2.83784" height="3.57114" fill="#1D0404" fill-opacity="0.26"/>
<rect x="102.162" y="14.2847" width="2.83784" height="3.57114" fill="#1D0404" fill-opacity="0.26"/>
<rect y="28.5691" width="2.83784" height="3.57114" fill="#1D0404" fill-opacity="0.26"/>
<rect x="11.3516" y="28.5691" width="2.83784" height="3.57114" fill="#1D0404" fill-opacity="0.26"/>
<rect x="22.7031" y="28.5691" width="2.83784" height="3.57114" fill="#1D0404" fill-opacity="0.26"/>
<rect x="34.0537" y="28.5691" width="2.83784" height="3.57114" fill="#1D0404" fill-opacity="0.26"/>
<rect x="45.4053" y="28.5691" width="2.83784" height="3.57114" fill="#1D0404" fill-opacity="0.26"/>
<rect x="56.7568" y="28.5691" width="2.83784" height="3.57114" fill="#1D0404" fill-opacity="0.26"/>
<rect x="68.1084" y="28.5691" width="2.83784" height="3.57114" fill="#1D0404" fill-opacity="0.26"/>
<rect x="79.46" y="28.5691" width="2.83784" height="3.57114" fill="#1D0404" fill-opacity="0.26"/>
<rect x="90.8105" y="28.5691" width="2.83784" height="3.57114" fill="#1D0404" fill-opacity="0.26"/>
<rect x="102.162" y="28.5691" width="2.83784" height="3.57114" fill="#1D0404" fill-opacity="0.26"/>
<rect y="42.8538" width="2.83784" height="3.57114" fill="#1D0404" fill-opacity="0.26"/>
<rect x="11.3516" y="42.8538" width="2.83784" height="3.57114" fill="#1D0404" fill-opacity="0.26"/>
<rect x="22.7031" y="42.8538" width="2.83784" height="3.57114" fill="#1D0404" fill-opacity="0.26"/>
<rect x="34.0537" y="42.8538" width="2.83784" height="3.57114" fill="#1D0404" fill-opacity="0.26"/>
<rect x="45.4053" y="42.8538" width="2.83784" height="3.57114" fill="#1D0404" fill-opacity="0.26"/>
<rect x="56.7568" y="42.8538" width="2.83784" height="3.57114" fill="#1D0404" fill-opacity="0.26"/>
<rect x="68.1084" y="42.8538" width="2.83784" height="3.57114" fill="#1D0404" fill-opacity="0.26"/>
<rect x="79.46" y="42.8538" width="2.83784" height="3.57114" fill="#1D0404" fill-opacity="0.26"/>
<rect x="90.8105" y="42.8538" width="2.83784" height="3.57114" fill="#1D0404" fill-opacity="0.26"/>
<rect x="102.162" y="42.8538" width="2.83784" height="3.57114" fill="#1D0404" fill-opacity="0.26"/>
<rect y="57.1382" width="2.83784" height="3.57114" fill="#1D0404" fill-opacity="0.26"/>
<rect x="11.3516" y="57.1382" width="2.83784" height="3.57114" fill="#1D0404" fill-opacity="0.26"/>
<rect x="22.7031" y="57.1382" width="2.83784" height="3.57114" fill="#1D0404" fill-opacity="0.26"/>
<rect x="34.0537" y="57.1382" width="2.83784" height="3.57114" fill="#1D0404" fill-opacity="0.26"/>
<rect x="45.4053" y="57.1382" width="2.83784" height="3.57114" fill="#1D0404" fill-opacity="0.26"/>
<rect x="56.7568" y="57.1382" width="2.83784" height="3.57114" fill="#1D0404" fill-opacity="0.26"/>
<rect x="68.1084" y="57.1382" width="2.83784" height="3.57114" fill="#1D0404" fill-opacity="0.26"/>
<rect x="79.46" y="57.1382" width="2.83784" height="3.57114" fill="#1D0404" fill-opacity="0.26"/>
<rect x="90.8105" y="57.1382" width="2.83784" height="3.57114" fill="#1D0404" fill-opacity="0.26"/>
<rect x="102.162" y="57.1382" width="2.83784" height="3.57114" fill="#1D0404" fill-opacity="0.26"/>
<rect y="71.4229" width="2.83784" height="3.57114" fill="#1D0404" fill-opacity="0.26"/>
<rect x="11.3516" y="71.4229" width="2.83784" height="3.57114" fill="#1D0404" fill-opacity="0.26"/>
<rect x="22.7031" y="71.4229" width="2.83784" height="3.57114" fill="#1D0404" fill-opacity="0.26"/>
<rect x="34.0537" y="71.4229" width="2.83784" height="3.57114" fill="#1D0404" fill-opacity="0.26"/>
<rect x="45.4053" y="71.4229" width="2.83784" height="3.57114" fill="#1D0404" fill-opacity="0.26"/>
<rect x="56.7568" y="71.4229" width="2.83784" height="3.57114" fill="#1D0404" fill-opacity="0.26"/>
<rect x="68.1084" y="71.4229" width="2.83784" height="3.57114" fill="#1D0404" fill-opacity="0.26"/>
<rect x="79.46" y="71.4229" width="2.83784" height="3.57114" fill="#1D0404" fill-opacity="0.26"/>
<rect x="90.8105" y="71.4229" width="2.83784" height="3.57114" fill="#1D0404" fill-opacity="0.26"/>
<rect x="102.162" y="71.4229" width="2.83784" height="3.57114" fill="#1D0404" fill-opacity="0.26"/>
<rect y="85.7073" width="2.83784" height="3.57114" fill="#1D0404" fill-opacity="0.26"/>
<rect y="99.4844" width="2.83784" height="3.57114" fill="#1D0404" fill-opacity="0.26"/>
<rect y="113.261" width="2.83784" height="3.57114" fill="#1D0404" fill-opacity="0.26"/>
<rect y="127.038" width="2.83784" height="3.57114" fill="#1D0404" fill-opacity="0.26"/>
<rect x="11.3516" y="85.7073" width="2.83784" height="3.57114" fill="#1D0404" fill-opacity="0.26"/>
<rect x="11.3516" y="99.4844" width="2.83784" height="3.57114" fill="#1D0404" fill-opacity="0.26"/>
<rect x="11.3516" y="113.261" width="2.83784" height="3.57114" fill="#1D0404" fill-opacity="0.26"/>
<rect x="11.3516" y="127.038" width="2.83784" height="3.57114" fill="#1D0404" fill-opacity="0.26"/>
<rect x="22.7031" y="85.7073" width="2.83784" height="3.57114" fill="#1D0404" fill-opacity="0.26"/>
<rect x="22.7031" y="99.4844" width="2.83784" height="3.57114" fill="#1D0404" fill-opacity="0.26"/>
<rect x="22.7031" y="113.261" width="2.83784" height="3.57114" fill="#1D0404" fill-opacity="0.26"/>
<rect x="22.7031" y="127.038" width="2.83784" height="3.57114" fill="#1D0404" fill-opacity="0.26"/>
<rect x="34.0537" y="85.7073" width="2.83784" height="3.57114" fill="#1D0404" fill-opacity="0.26"/>
<rect x="34.0537" y="99.4844" width="2.83784" height="3.57114" fill="#1D0404" fill-opacity="0.26"/>
<rect x="34.0537" y="113.261" width="2.83784" height="3.57114" fill="#1D0404" fill-opacity="0.26"/>
<rect x="34.0537" y="127.038" width="2.83784" height="3.57114" fill="#1D0404" fill-opacity="0.26"/>
<rect x="45.4053" y="85.7073" width="2.83784" height="3.57114" fill="#1D0404" fill-opacity="0.26"/>
<rect x="45.4053" y="99.4844" width="2.83784" height="3.57114" fill="#1D0404" fill-opacity="0.26"/>
<rect x="45.4053" y="113.261" width="2.83784" height="3.57114" fill="#1D0404" fill-opacity="0.26"/>
<rect x="45.4053" y="127.038" width="2.83784" height="3.57114" fill="#1D0404" fill-opacity="0.26"/>
<rect x="56.7568" y="85.7073" width="2.83784" height="3.57114" fill="#1D0404" fill-opacity="0.26"/>
<rect x="56.7568" y="99.4844" width="2.83784" height="3.57114" fill="#1D0404" fill-opacity="0.26"/>
<rect x="56.7568" y="113.261" width="2.83784" height="3.57114" fill="#1D0404" fill-opacity="0.26"/>
<rect x="56.7568" y="127.038" width="2.83784" height="3.57114" fill="#1D0404" fill-opacity="0.26"/>
<rect x="68.1084" y="85.7073" width="2.83784" height="3.57114" fill="#1D0404" fill-opacity="0.26"/>
<rect x="68.1084" y="99.4844" width="2.83784" height="3.57114" fill="#1D0404" fill-opacity="0.26"/>
<rect x="68.1084" y="113.261" width="2.83784" height="3.57114" fill="#1D0404" fill-opacity="0.26"/>
<rect x="68.1084" y="127.038" width="2.83784" height="3.57114" fill="#1D0404" fill-opacity="0.26"/>
<rect x="79.46" y="85.7073" width="2.83784" height="3.57114" fill="#1D0404" fill-opacity="0.26"/>
<rect x="79.46" y="99.4844" width="2.83784" height="3.57114" fill="#1D0404" fill-opacity="0.26"/>
<rect x="79.46" y="113.261" width="2.83784" height="3.57114" fill="#1D0404" fill-opacity="0.26"/>
<rect x="79.46" y="127.038" width="2.83784" height="3.57114" fill="#1D0404" fill-opacity="0.26"/>
<rect x="90.8105" y="85.7073" width="2.83784" height="3.57114" fill="#1D0404" fill-opacity="0.26"/>
<rect x="90.8105" y="99.4844" width="2.83784" height="3.57114" fill="#1D0404" fill-opacity="0.26"/>
<rect x="90.8105" y="113.261" width="2.83784" height="3.57114" fill="#1D0404" fill-opacity="0.26"/>
<rect x="90.8105" y="127.038" width="2.83784" height="3.57114" fill="#1D0404" fill-opacity="0.26"/>
<rect x="102.162" y="85.7073" width="2.83784" height="3.57114" fill="#1D0404" fill-opacity="0.26"/>
<rect x="102.162" y="99.4844" width="2.83784" height="3.57114" fill="#1D0404" fill-opacity="0.26"/>
<rect x="102.162" y="113.261" width="2.83784" height="3.57114" fill="#1D0404" fill-opacity="0.26"/>
<rect x="102.162" y="127.038" width="2.83784" height="3.57114" fill="#1D0404" fill-opacity="0.26"/>
</svg>
