<svg width="19" height="16" viewBox="0 0 19 16" fill="none" xmlns="http://www.w3.org/2000/svg">
<path d="M12.8767 0.852729V0.849487H13.7207L14.029 0.911079C14.2346 0.951065 14.4213 1.00347 14.589 1.0683C14.7567 1.13313 14.9191 1.20878 15.0759 1.29522C15.2328 1.38166 15.3751 1.46973 15.5028 1.55942C15.6294 1.64803 15.743 1.74204 15.8437 1.84144C15.9432 1.94193 16.0985 1.96787 16.3095 1.91924C16.5205 1.87062 16.7477 1.80308 16.9912 1.71664C17.2346 1.6302 17.4754 1.53295 17.7135 1.42489C17.9515 1.31682 18.0965 1.24821 18.1485 1.21904C18.1993 1.18879 18.2264 1.17259 18.2296 1.17041L18.2328 1.16555L18.2491 1.15745L18.2653 1.14934L18.2815 1.14124L18.2978 1.13313L18.301 1.12827L18.3059 1.12503L18.3108 1.12179L18.314 1.11693L18.3302 1.11206L18.3465 1.10882L18.3432 1.13313L18.3383 1.15745L18.3302 1.18176L18.3221 1.20607L18.314 1.22228L18.3059 1.23849L18.2978 1.2628C18.2924 1.27901 18.287 1.30062 18.2815 1.32764C18.2761 1.35465 18.2247 1.4627 18.1273 1.6518C18.03 1.84091 17.9082 2.0327 17.7621 2.2272C17.6161 2.4217 17.4851 2.56865 17.3694 2.66807C17.2525 2.76856 17.1751 2.83879 17.1373 2.87878C17.0994 2.91984 17.0534 2.95765 16.9993 2.99224L16.9181 3.04573L16.9019 3.05383L16.8857 3.06193L16.8824 3.0668L16.8776 3.07004L16.8727 3.07328L16.8694 3.07814L16.8532 3.08625L16.837 3.09435L16.8338 3.09921L16.8289 3.10246L16.824 3.1057L16.8208 3.11056L16.8175 3.11542L16.8126 3.11866L16.8078 3.12191L16.8045 3.12677H16.8857L17.3401 3.02952C17.6431 2.96468 17.9326 2.88635 18.2085 2.7945L18.6467 2.64862L18.6954 2.63241L18.7198 2.62431L18.736 2.6162L18.7522 2.6081L18.7685 2.6L18.7847 2.59189L18.8171 2.58703L18.8496 2.58379V2.6162L18.8415 2.61945L18.8334 2.62431L18.8301 2.62917L18.8253 2.63241L18.8204 2.63565L18.8171 2.64052L18.8139 2.64538L18.809 2.64862L18.8042 2.65186L18.8009 2.65672L18.7977 2.66159L18.7928 2.66483L18.7847 2.68104L18.7766 2.69725L18.7717 2.70049C18.7695 2.70373 18.7008 2.79557 18.5656 2.97603C18.4303 3.15756 18.3573 3.2494 18.3465 3.25157C18.3356 3.25482 18.3205 3.27102 18.301 3.3002C18.2826 3.33044 18.1679 3.45094 17.9569 3.66165C17.7459 3.87236 17.5393 4.05982 17.3369 4.22408C17.1335 4.3894 17.0307 4.59254 17.0285 4.83351C17.0253 5.0734 17.0128 5.34463 16.9912 5.64718C16.9695 5.94974 16.929 6.2766 16.8694 6.62778C16.8099 6.97897 16.718 7.37608 16.5935 7.8191C16.4691 8.26213 16.3176 8.69436 16.1391 9.11578C15.9605 9.53719 15.7739 9.91539 15.5791 10.2504C15.3843 10.5853 15.2058 10.869 15.0435 11.1013C14.8812 11.3336 14.7162 11.5524 14.5484 11.7577C14.3807 11.9631 14.1687 12.1943 13.9122 12.4515C13.6547 12.7076 13.514 12.848 13.4902 12.8729C13.4653 12.8967 13.3593 12.9853 13.1721 13.1387C12.986 13.2932 12.7858 13.4477 12.5715 13.6023C12.3584 13.7557 12.1625 13.8838 11.984 13.9864C11.8054 14.0891 11.5901 14.2063 11.338 14.3381C11.087 14.471 10.8153 14.5942 10.5232 14.7077C10.231 14.8211 9.92265 14.9265 9.59803 15.0237C9.27341 15.121 8.95962 15.1966 8.65664 15.2507C8.35368 15.3047 8.01012 15.3506 7.62598 15.3884L7.04979 15.4452V15.4533H5.99479V15.4452L5.85682 15.4371C5.76486 15.4317 5.68911 15.4262 5.62959 15.4208C5.57009 15.4154 5.34555 15.3857 4.95601 15.3317C4.56647 15.2777 4.2608 15.2236 4.03897 15.1696C3.81716 15.1156 3.48712 15.0129 3.04889 14.8617C2.61066 14.7104 2.23572 14.5575 1.92409 14.403C1.61355 14.2495 1.41878 14.1523 1.33978 14.1112C1.26187 14.0712 1.17423 14.0215 1.07684 13.9621L0.930764 13.8729L0.927534 13.8681L0.922648 13.8648L0.917779 13.8616L0.914533 13.8567L0.898302 13.8486L0.882071 13.8405L0.878841 13.8357L0.873956 13.8324L0.869086 13.8292L0.86584 13.8243L0.86261 13.8195L0.857725 13.8162H0.849609V13.7838L0.86584 13.787L0.882071 13.7919L0.95511 13.8C1.0038 13.8054 1.13636 13.8135 1.35277 13.8243C1.56919 13.8351 1.79911 13.8351 2.04258 13.8243C2.28604 13.8135 2.53492 13.7892 2.78919 13.7514C3.04348 13.7136 3.34375 13.6487 3.69001 13.5569C4.03627 13.465 4.3544 13.3559 4.6444 13.2295C4.9333 13.102 5.13888 13.0069 5.26117 12.9442C5.38235 12.8826 5.56738 12.7681 5.81625 12.6006L6.18956 12.3494L6.1928 12.3445L6.19767 12.3412L6.20256 12.338L6.20579 12.3331L6.20903 12.3283L6.2139 12.325L6.21879 12.3218L6.22202 12.3169L6.23825 12.3121L6.25448 12.3088L6.25772 12.2926L6.26259 12.2764L6.26748 12.2732L6.27071 12.2683L6.14086 12.2602C6.0543 12.2548 5.97044 12.2494 5.88928 12.244C5.80813 12.2386 5.68099 12.2143 5.50786 12.1711C5.33474 12.1278 5.14809 12.063 4.9479 11.9766C4.74772 11.8901 4.55295 11.7875 4.36359 11.6686C4.17424 11.5497 4.03735 11.4509 3.95295 11.372C3.86963 11.2942 3.76142 11.184 3.62833 11.0413C3.49632 10.8976 3.38162 10.7501 3.28424 10.5988C3.18685 10.4476 3.0938 10.273 3.00508 10.0753L2.87035 9.78032L2.86223 9.75601L2.85412 9.7317L2.84925 9.71549L2.846 9.69928L2.87035 9.70252L2.8947 9.70738L3.07323 9.7317C3.19227 9.7479 3.37893 9.7533 3.6332 9.7479C3.88749 9.74251 4.06332 9.7317 4.1607 9.71549C4.25809 9.69928 4.3176 9.68847 4.33924 9.68307L4.3717 9.67497L4.41228 9.66686L4.45286 9.65876L4.4561 9.6539L4.46097 9.65065L4.46586 9.64741L4.46909 9.64255L4.43662 9.63444L4.40416 9.62634L4.3717 9.61824L4.33924 9.61013L4.30678 9.60203C4.28514 9.59663 4.24728 9.58582 4.19316 9.56961C4.13906 9.5534 3.99299 9.49397 3.75493 9.39132C3.51689 9.28867 3.32752 9.18871 3.18685 9.09146C3.04583 8.99393 2.91137 8.88727 2.78433 8.77216C2.65772 8.65546 2.51869 8.50525 2.36719 8.32156C2.21571 8.13787 2.08046 7.92446 1.96142 7.68133C1.8424 7.43821 1.75313 7.20589 1.69361 6.98437C1.63433 6.76415 1.59522 6.53901 1.57677 6.31172L1.54754 5.97134L1.56377 5.97459L1.58 5.97945L1.59623 5.98755L1.61246 5.99566L1.62869 6.00376L1.64492 6.01187L1.8965 6.12532C2.06423 6.20097 2.27252 6.2658 2.52139 6.31983C2.77027 6.37385 2.91904 6.40357 2.96773 6.40897L3.04077 6.41708H3.18685L3.18362 6.41221L3.17873 6.40897L3.17387 6.40573L3.17062 6.40087L3.16739 6.396L3.1625 6.39276L3.15763 6.38952L3.15439 6.38466L3.13816 6.37655L3.12193 6.36845L3.1187 6.36359L3.11381 6.36035L3.10894 6.3571L3.1057 6.35224L3.08947 6.34414L3.07323 6.33603L3.07 6.33117C3.06676 6.329 3.02022 6.29443 2.9304 6.22744C2.84167 6.15936 2.74862 6.0713 2.65123 5.96324C2.55385 5.85518 2.45646 5.74172 2.35908 5.62286C2.26151 5.50374 2.17461 5.37628 2.09938 5.24197C2.02365 5.1069 1.94357 4.93508 1.85917 4.72654C1.77585 4.51907 1.71255 4.30998 1.66927 4.09927C1.626 3.88856 1.60165 3.68056 1.59623 3.47525C1.59082 3.26994 1.59623 3.09435 1.61246 2.94848C1.62869 2.8026 1.66115 2.63781 1.70984 2.45412C1.75854 2.27043 1.82888 2.07593 1.92084 1.87062L2.05881 1.56266L2.06692 1.53834L2.07504 1.51403L2.07992 1.51079L2.08315 1.50593L2.0864 1.50107L2.09127 1.49782L2.09615 1.50107L2.09938 1.50593L2.10263 1.51079L2.1075 1.51403L2.11238 1.51727L2.11561 1.52214L2.11886 1.527L2.12373 1.53024L2.13185 1.54645L2.13996 1.56266L2.14485 1.5659L2.14808 1.57076L2.36719 1.81389C2.51327 1.97597 2.6864 2.15697 2.88658 2.35687C3.08677 2.55677 3.19768 2.6605 3.21931 2.66807C3.24096 2.67671 3.268 2.70156 3.30047 2.74263C3.33293 2.78262 3.44114 2.87825 3.62508 3.02952C3.80904 3.18079 4.0498 3.35639 4.34736 3.55629C4.64493 3.75619 4.97495 3.9534 5.33744 4.1479C5.69994 4.3424 6.08948 4.51799 6.50606 4.67467C6.92265 4.83136 7.21481 4.93401 7.38252 4.98263C7.55025 5.03126 7.83699 5.09338 8.24276 5.16903C8.64853 5.24467 8.95422 5.2933 9.1598 5.3149C9.36539 5.33651 9.50607 5.34894 9.5818 5.35218L9.69542 5.35542L9.69219 5.33111L9.6873 5.3068L9.65484 5.10419C9.6332 4.96913 9.62238 4.78003 9.62238 4.5369C9.62238 4.29377 9.64132 4.06956 9.67919 3.86425C9.71707 3.65894 9.77388 3.45094 9.84961 3.24023C9.92536 3.02952 9.99949 2.8604 10.072 2.7329C10.1456 2.60648 10.2419 2.46222 10.3609 2.30014C10.4799 2.13806 10.6341 1.97057 10.8235 1.79768C11.0128 1.62478 11.2292 1.4708 11.4727 1.33574C11.7162 1.20067 11.9407 1.09801 12.1463 1.02778C12.3519 0.957549 12.525 0.911614 12.6657 0.890008C12.8063 0.868403 12.8767 0.855971 12.8767 0.852729Z" fill="#4A3AFF"/>
</svg>
