<svg width="21" height="16" viewBox="0 0 21 16" fill="none" xmlns="http://www.w3.org/2000/svg">
<path d="M11.2884 15.1313L7.22617 15.0554C5.91092 15.0289 4.5924 15.0817 3.30294 14.8076C1.34138 14.3981 1.20241 12.3902 1.057 10.706C0.856641 8.33814 0.934207 5.92733 1.31232 3.57925C1.52577 2.26174 2.3658 1.47557 3.66488 1.39001C8.05023 1.07954 12.4647 1.11633 16.8404 1.26118C17.3025 1.27446 17.7678 1.34704 18.2235 1.42965C20.4728 1.83257 20.5276 4.10796 20.6734 6.02342C20.8189 7.95864 20.7575 9.9038 20.4795 11.8258C20.2566 13.4172 19.8299 14.7518 18.0296 14.8806C15.7738 15.0491 13.5698 15.1847 11.3077 15.1415C11.3078 15.1313 11.2948 15.1313 11.2884 15.1313ZM8.90019 11.1023C10.6001 10.1049 12.2676 9.12411 13.9577 8.13339C12.2547 7.13598 10.5904 6.15519 8.90019 5.16447V11.1023Z" fill="#4A3AFF"/>
</svg>
